<svg fill="none" height="20" viewBox="0 0 64 20" width="64" 
    xmlns="http://www.w3.org/2000/svg">
    <g fill="#000">
        <path d="m33.2857 13.2273c-.6268.7393-1.5108 1.1733-2.5072 1.1733-1.8 0-3.6321-1.2858-3.6321-3.6643 0-1.97681 1.3982-3.74467 3.5518-3.74467.3857 0 1.6071.08036 2.5875 1.20536v-2.44286c-.9804-.53036-1.8804-.65893-2.6358-.65893-1.5267 0-2.8607.40179-3.9375 1.41429-.916.85178-1.7196 2.25-1.7196 4.19461 0 1.575.4821 2.909 1.7196 4.0982.9.8518 2.0411 1.4947 3.9215 1.4947 1.1571 0 2.0089-.2893 2.6518-.6268z"/>
        <path d="m34.7564 4.33984v11.71606h1.9608v-11.71606z"/>
        <path d="m42.0574 8.87199c-1.3179 0-2.2179.43393-2.8125.98035-.6911.62676-1.1732 1.59106-1.1732 2.73216 0 1.125.4821 2.0893 1.1732 2.7161.5946.5464 1.4946.9803 2.8125.9803 1.3178 0 2.2178-.4339 2.8125-.9803.6911-.6268 1.1732-1.5911 1.1732-2.7161 0-1.1411-.4821-2.1054-1.1732-2.73216-.5947-.54642-1.4947-.98035-2.8125-.98035zm0 5.67321c-1.1411 0-1.9607-.9-1.9607-1.9607 0-1.0929.8357-1.9768 1.9607-1.9768s1.9607.8839 1.9607 1.9768c0 1.0607-.8196 1.9607-1.9607 1.9607z"/>
        <path d="m47.3989 9.09699v4.25891c0 .6268.0803 1.4625.8518 2.1375.6428.5625 1.6714.7875 2.5232.7875s1.8803-.225 2.5232-.7875c.7714-.675.8518-1.5107.8518-2.1375v-4.25891h-1.9607v3.93751c0 .3696-.0322.8678-.4179 1.2214-.2411.2089-.6268.3536-.9964.3536-.3697 0-.7554-.1447-.9964-.3536-.3858-.3536-.4179-.8518-.4179-1.2214v-3.93751z"/>
        <path d="m61.1903 9.99699c-.6589-1.02857-1.7036-1.125-2.2339-1.125-2.0572 0-3.4554 1.63931-3.4554 3.69641 0 2.0411 1.4143 3.7125 3.5518 3.7125.4982 0 1.4304-.1125 2.1375-1.125v.9h1.9607v-11.71606h-1.9607zm-1.7357.61071c1.125 0 1.9286.8518 1.9286 1.9607s-.8036 1.9768-1.9286 1.9768-1.9286-.8679-1.9286-1.9768.8036-1.9607 1.9286-1.9607z"/>
    </g>
    <path d="m17.8572 9.99997h-5v1.42853h3.4285c-.5 2.1429-2.0714 3.9286-4.1428 4.6429l-8.21429-8.21429c.85714-2.5 3.28571-4.28572 6.07139-4.28572 2.1429 0 4.0715 1.07143 5.2857 2.71429l1.0715-.92857c-1.4286-1.92857-3.7143-3.21429-6.3572-3.21429-3.71425 0-6.85711 2.64286-7.64282 6.14286l9.42852 9.42862c3.4286-.8572 6.0715-4 6.0715-7.71433z" fill="#fff"/>
    <path d="m2.14282 10.0714c0 2 .78572 3.9286 2.28572 5.4286s3.5 2.2857 5.42857 2.2857z" fill="#fff"/>
    <path clip-rule="evenodd" d="m10 0c-5.5 0-10 4.5-10 10s4.5 10 10 10 10-4.5 10-10-4.5-10-10-10zm-5.57143 15.5714c-1.5-1.5-2.28571-3.5-2.28571-5.4285l7.78571 7.7143c-2-.0715-4-.7858-5.5-2.2858zm-2.07139-7.28568 9.35712 9.35718c3.5-.7858 6.1429-3.9286 6.1429-7.6429h-5v1.4286h3.4285c-.5 2.1428-2.0714 3.9285-4.1428 4.6428l-8.21429-8.21426c.92857-2.5 3.28571-4.28571 6.07139-4.28571 2.1429 0 4.0715 1.07143 5.2857 2.71429l1.0715-.92858c-1.4286-1.92857-3.7143-3.21428-6.3572-3.21428-3.71425 0-6.85711 2.64286-7.64282 6.14286z" fill="#639" fill-rule="evenodd"/>
</svg>