<svg width="22" height="22" viewBox="0 0 22 22" fill="none" xmlns="http://www.w3.org/2000/svg">
<path d="M16 11C18.7614 11 21 8.76142 21 6C21 3.23858 18.7614 1 16 1M16 11V1M16 11C18.7614 11 21 13.2386 21 16C21 18.7614 18.7614 21 16 21M16 11V21M16 11L11.0001 11M16 1H11M16 21L11 21M1 11V21L11 21M1 11L11 21M1 11L11.0001 11M1 11L11 1M1 11V1H11M11 21L11.0001 11M11.0001 11L11 1" stroke="url(#paint0_linear)" stroke-width="1.5" stroke-linecap="round" stroke-linejoin="round"/>
<defs>
<linearGradient id="paint0_linear" x1="19.3267" y1="1.82739" x2="0.999402" y2="20.1541" gradientUnits="userSpaceOnUse">
<stop offset="0.203155" stop-color="#663399"/>
<stop offset="1" stop-color="#FF684F"/>
</linearGradient>
</defs>
</svg>
