<svg width="16" height="16" viewBox="0 0 16 16" fill="none" xmlns="http://www.w3.org/2000/svg">
<path fill-rule="evenodd" clip-rule="evenodd" d="M6.8342 4.1783C6.74571 4.13793 4.67636 3.26325 4.67636 3.26325C4.67487 3.26177 4.67338 3.26062 4.67203 3.25958C4.66722 3.25587 4.66424 3.25357 4.66955 3.24306C4.66955 3.23633 4.66955 3.2296 4.67636 3.22288L7.91652 0.00672834C7.91652 0 7.92333 0 7.93014 0C7.93304 0 7.9347 0 7.93618 0.000520325C7.93818 0.00122129 7.93984 0.00286658 7.94375 0.00672834L9.3392 1.38604C9.34601 1.39277 9.34601 1.40622 9.3392 1.41295L7.65786 4.01682L7.65785 4.01682C7.65105 4.02355 7.64424 4.03028 7.63743 4.03028H7.63063C7.54213 4.00336 7.45364 3.98991 7.36515 3.98991C7.18136 3.98991 6.99757 4.05719 6.85462 4.17157C6.84781 4.1783 6.84781 4.1783 6.84101 4.1783H6.8342ZM8.1752 4.72999C8.16158 4.59542 8.11393 4.46085 8.03906 4.34647C8.03225 4.33974 8.03225 4.32629 8.03906 4.31283L9.67956 1.76952C9.67956 1.76279 9.68637 1.75606 9.69317 1.75606C9.69607 1.75606 9.69774 1.75606 9.69922 1.75658C9.70121 1.75728 9.70288 1.75892 9.70678 1.76278L9.70679 1.76279L11.1635 3.20938C11.1703 3.21611 11.1703 3.22284 11.1703 3.22957L10.7891 5.59121C10.7891 5.60467 10.7823 5.6114 10.7755 5.6114C10.687 5.63831 10.6053 5.67868 10.5372 5.73251C10.5372 5.73924 10.5304 5.73924 10.5236 5.73924H10.5168L8.18881 4.75017C8.182 4.74344 8.1752 4.73671 8.1752 4.72999ZM11.4903 5.8133C11.4359 5.75275 11.3678 5.69892 11.2861 5.65855C11.2816 5.65855 11.277 5.65257 11.2725 5.64659C11.2702 5.6436 11.268 5.64061 11.2657 5.63837L11.5856 3.68042C11.5856 3.66696 11.5924 3.66023 11.5992 3.66023H11.6061C11.6061 3.66023 11.6129 3.66023 11.6197 3.66696L13.0832 5.11356C13.09 5.12029 13.09 5.12701 13.09 5.13374C13.09 5.14047 13.0832 5.1472 13.0764 5.15393L11.5108 5.82003H11.504C11.501 5.82003 11.4994 5.82003 11.4979 5.81951C11.4959 5.81881 11.4942 5.81717 11.4903 5.8133ZM15.9898 7.98651L13.4916 5.51048C13.4848 5.50375 13.478 5.50375 13.478 5.50375H13.4712L11.7762 6.22369C11.7694 6.23041 11.7626 6.23714 11.7626 6.24387C11.7626 6.2506 11.7694 6.26406 11.7762 6.26406L15.9558 8.03361H15.9626C15.9694 8.03361 15.9762 8.03361 15.9762 8.02688L15.9898 8.01342C16.0034 8.01342 16.0034 7.99324 15.9898 7.98651ZM11.565 6.69474L15.5744 8.39029C15.5812 8.39702 15.5812 8.40374 15.5812 8.41047C15.5812 8.4172 15.5812 8.42393 15.5744 8.43066L13.3553 10.6308C13.3553 10.6376 13.3485 10.6376 13.3417 10.6376H13.3349L10.9115 10.1329C10.8979 10.1329 10.8911 10.1262 10.8911 10.1127C10.8707 9.92435 10.7822 9.75614 10.6324 9.64176C10.6256 9.63503 10.6256 9.6283 10.6256 9.62157L11.0545 6.99079C11.0545 6.97733 11.0681 6.97061 11.0749 6.97061C11.2655 6.94369 11.4289 6.8495 11.5378 6.70147C11.5446 6.69474 11.5514 6.69474 11.5582 6.69474H11.565ZM10.2651 6.14298L8.07324 5.21447H8.06643C8.05963 5.21447 8.05282 5.2212 8.04601 5.22793C7.89626 5.45669 7.6444 5.59126 7.37211 5.59126C7.33646 5.59126 7.30081 5.58613 7.26064 5.58035L7.26063 5.58035L7.24278 5.5778H7.23597C7.22917 5.5778 7.22236 5.58453 7.21555 5.59126L5.41168 8.38352C5.40487 8.39025 5.40487 8.4037 5.41168 8.41043C5.41849 8.41716 5.42529 8.41716 5.4321 8.41716H5.43891L10.2515 6.36502C10.2583 6.35829 10.2651 6.35156 10.2651 6.34483V6.31792V6.28428C10.2651 6.24391 10.2719 6.20354 10.2787 6.16989C10.2787 6.15644 10.2719 6.14971 10.2651 6.14298ZM10.7758 10.5905L12.9064 11.0278C12.9132 11.0278 12.92 11.0345 12.92 11.0547C12.92 11.0614 12.92 11.0682 12.9132 11.0749L9.95891 14.0017C9.95891 14.0085 9.9521 14.0085 9.94529 14.0085H9.93168C9.92487 14.0017 9.91807 13.995 9.91807 13.9815L10.4286 10.8461C10.4286 10.8394 10.4354 10.8259 10.4422 10.8259C10.5647 10.7789 10.6668 10.6981 10.7485 10.5972C10.7519 10.5972 10.7553 10.5955 10.7587 10.5938C10.7621 10.5921 10.7655 10.5905 10.7689 10.5905H10.7758ZM9.93165 10.8125C9.72744 10.7317 9.57768 10.5501 9.52323 10.3415C9.52323 10.3348 9.51642 10.328 9.50281 10.3213L5.55471 9.50718H5.5479C5.5411 9.50718 5.53429 9.51391 5.52748 9.52063C5.52139 9.53067 5.5159 9.54012 5.51065 9.54914C5.49833 9.57034 5.48735 9.58922 5.47302 9.6081C5.46622 9.61483 5.46622 9.62829 5.47302 9.63502L9.06715 14.8293C9.07106 14.8332 9.07272 14.8348 9.07472 14.8355C9.0762 14.836 9.07787 14.836 9.08077 14.836C9.08757 14.836 9.09438 14.836 9.09438 14.8293L9.31221 14.614C9.31221 14.6106 9.31391 14.6089 9.31561 14.6073C9.31731 14.6056 9.31901 14.6039 9.31901 14.6005L9.93165 10.8327C9.94526 10.8327 9.94526 10.8192 9.93165 10.8125ZM5.65672 9.04966C5.64311 9.04966 5.6363 9.04293 5.6363 9.02947C5.6363 8.99453 5.63056 8.96243 5.62467 8.92948C5.62149 8.91167 5.61827 8.89361 5.61588 8.87472C5.61588 8.86126 5.61588 8.85453 5.62949 8.84781L10.4693 6.7822H10.4761C10.4761 6.7822 10.4829 6.7822 10.4897 6.78893C10.5238 6.82257 10.551 6.84276 10.5782 6.86294C10.5918 6.86294 10.5918 6.8764 10.5918 6.88313L10.1698 9.47354C10.1698 9.487 10.163 9.49373 10.1494 9.49373C9.91794 9.50718 9.71373 9.64175 9.59801 9.8436C9.5912 9.85033 9.58439 9.85706 9.57759 9.85706H9.57078L5.65672 9.04966ZM3.99556 9.68206C3.97513 9.65515 3.95471 9.62824 3.93429 9.59459C3.92748 9.58787 3.92068 9.58114 3.91387 9.58114H3.90706L2.21891 10.3011C2.2121 10.3011 2.2053 10.3078 2.2053 10.3145C2.2053 10.3213 2.2053 10.328 2.2121 10.3347L3.03576 11.1488C3.04257 11.1556 3.04937 11.1556 3.04937 11.1556C3.05618 11.1556 3.06299 11.1488 3.06979 11.1421L4.00236 9.69552C4.00236 9.69552 4.00236 9.68879 3.99556 9.68206ZM5.09154 9.93108C5.09835 9.93108 5.10515 9.93781 5.11196 9.94453L8.7197 15.1792C8.72651 15.1859 8.72651 15.1994 8.7197 15.2061L7.93009 15.9933C7.93009 16 7.92328 16 7.91647 16C7.91647 16 7.90966 16 7.90286 15.9933L3.39658 11.5324C3.38977 11.5257 3.38977 11.5122 3.39658 11.5055L3.40339 11.4988L4.38361 9.97818C4.39041 9.97145 4.39722 9.96472 4.40403 9.96472H4.41083C4.51294 9.99836 4.60824 10.0118 4.71034 10.0118C4.83968 10.0118 4.96221 9.9849 5.08473 9.93108H5.09154ZM4.47907 8.18835C4.48588 8.19508 4.49269 8.20181 4.4995 8.20181H4.5063C4.57437 8.18835 4.64925 8.1749 4.71732 8.1749C4.7922 8.1749 4.87388 8.18835 4.94876 8.20854H4.95557C4.96238 8.20854 4.96918 8.20181 4.97599 8.19508L6.80028 5.36918C6.80709 5.36245 6.80709 5.34899 6.80028 5.34226C6.65733 5.19424 6.57565 4.99912 6.57565 4.79054C6.57565 4.72998 6.58246 4.66943 6.59607 4.60887C6.59607 4.59542 6.58926 4.58869 6.58246 4.58196C6.48866 4.54106 6.09632 4.37527 5.66284 4.19209L5.66276 4.19206L5.6626 4.19199L5.66239 4.1919C5.02642 3.92316 4.30209 3.61708 4.30209 3.61308H4.29528C4.28848 3.61308 4.28167 3.61308 4.28167 3.61981L2.54587 5.34226C2.53906 5.34899 2.53906 5.36245 2.54587 5.36918L4.47907 8.18835ZM3.87322 8.6796C3.88003 8.6796 3.88683 8.67288 3.89364 8.66615C3.93448 8.58541 3.99575 8.5114 4.05701 8.44411C4.06382 8.43738 4.06382 8.42393 4.05701 8.4172C4.03659 8.39028 2.19187 5.72586 2.19187 5.71913C2.18507 5.7124 2.18507 5.7124 2.17145 5.70568C2.16465 5.70568 2.15784 5.70568 2.15784 5.7124L0.00680706 7.83856C0 7.84529 0 7.85202 0 7.85875C0 7.86547 0.00680706 7.8722 0.0204212 7.8722L3.87322 8.6796ZM3.67591 9.12367C3.68952 9.12367 3.69633 9.1304 3.69633 9.14385C3.69633 9.15058 3.68952 9.15731 3.67591 9.17077L1.82439 9.95798H1.81758C1.81758 9.95798 1.81077 9.95798 1.80396 9.95125L0.313218 8.47102C0.306411 8.46429 0.299604 8.45084 0.306411 8.44411C0.313218 8.43738 0.320025 8.43065 0.326832 8.43065H0.333639L3.67591 9.12367Z" fill="url(#paint0_radial)"/>
<defs>
<radialGradient id="paint0_radial" cx="0" cy="0" r="1" gradientUnits="userSpaceOnUse" gradientTransform="translate(8) scale(16)">
<stop stop-color="#20C6B7"/>
<stop offset="1" stop-color="#4D9ABF"/>
</radialGradient>
</defs>
</svg>
